<?xml version="1.0" encoding="UTF-8" standalone="no"?>
<svg
   viewBox="0 0 48 48"
   version="1.1"
   id="svg13"
   sodipodi:docname="bxl-jitsi-TEST.svg"
   inkscape:version="1.4 (86a8ad7, 2024-10-11)"
   xmlns:inkscape="http://www.inkscape.org/namespaces/inkscape"
   xmlns:sodipodi="http://sodipodi.sourceforge.net/DTD/sodipodi-0.dtd"
   xmlns="http://www.w3.org/2000/svg"
   xmlns:svg="http://www.w3.org/2000/svg">
  <defs
     id="defs13" />
  <sodipodi:namedview
     id="namedview13"
     pagecolor="#505050"
     bordercolor="#eeeeee"
     borderopacity="1"
     inkscape:showpageshadow="0"
     inkscape:pageopacity="0"
     inkscape:pagecheckerboard="0"
     inkscape:deskcolor="#505050"
     showgrid="false"
     inkscape:zoom="30.229167"
     inkscape:cx="19.534114"
     inkscape:cy="23.933839"
     inkscape:window-width="3200"
     inkscape:window-height="1711"
     inkscape:window-x="2391"
     inkscape:window-y="-9"
     inkscape:window-maximized="1"
     inkscape:current-layer="svg13" />
  <linearGradient
     id="a"
     gradientTransform="matrix(0 -1 1 0 -48.854849 48.725698)"
     gradientUnits="userSpaceOnUse"
     x1="355.88489"
     x2="356.61118"
     y1="548.30951"
     y2="505.30618">
    <stop
       offset="0"
       stop-color="#225a86"
       id="stop1" />
    <stop
       offset="1"
       stop-color="#266597"
       id="stop2" />
  </linearGradient>
  <path
     id="path3"
     style="fill:#000000"
     d="M 355.35805 505.15091 C 348.80605 505.15091 342.63916 507.23169 337.99516 511.01069 C 333.31116 514.82269 330.73256 519.90143 330.73256 525.31543 C 330.73256 530.48243 333.0829 535.34512 337.3699 539.09112 C 337.2929 539.26512 337.23054 539.44822 337.19154 539.64022 L 335.78271 546.56814 C 335.61571 547.39114 335.84126 547.88232 336.05926 548.14932 C 336.31126 548.45732 336.68538 548.62828 337.11138 548.62828 C 337.43338 548.62828 337.77845 548.53372 338.13945 548.34572 L 346.33391 544.08916 C 349.16991 545.00216 352.21804 545.48196 355.35204 545.48196 C 361.90404 545.48196 368.07093 543.39918 372.71493 539.62018 C 377.39893 535.80818 379.97953 530.72943 379.97953 525.31543 C 379.97953 519.90243 377.39893 514.82068 372.71493 511.00868 L 372.72094 511.01069 C 368.07694 507.23169 361.91005 505.15091 355.35805 505.15091 z M 361.31602 509.33532 C 361.63718 510.15309 361.89754 510.81035 361.79699 511.87643 C 361.62461 513.06666 360.96293 513.84823 360.46631 514.32535 L 360.46431 514.32334 C 359.68348 515.0734 359.4984 515.18294 359.83905 514.58988 C 360.92565 512.70603 361.16006 510.93085 361.31602 509.33532 z M 360.58255 511.75017 C 360.8031 511.71821 360.10879 514.54355 358.47832 515.95663 C 357.88936 516.46555 355.70898 516.92686 355.01536 517.55584 C 355.1077 516.12551 355.16395 514.80664 356.81898 514.10891 L 356.81898 514.10691 C 357.42744 513.77036 359.34241 513.28923 360.52443 511.79426 C 360.54726 511.76547 360.56784 511.7523 360.58255 511.75017 z M 360.7589 514.8985 C 360.87485 514.8985 361.29989 515.56765 361.43225 516.08889 L 361.43225 516.0909 C 361.78419 517.473 360.86718 519.00507 359.62462 518.30735 C 358.89099 517.89795 358.57002 516.69058 359.23183 516.02877 C 359.52426 515.73942 360.65424 514.8985 360.7589 514.8985 z M 358.47431 516.41354 C 358.33374 517.26825 358.77495 518.24968 359.50037 518.65806 C 359.87283 518.86635 360.20938 518.92663 360.52643 518.88251 C 359.92106 520.2092 358.56656 521.4156 356.93923 521.80037 C 355.70077 520.89436 354.34226 519.60408 355.01536 517.88851 C 355.3437 517.62789 356.44271 517.06715 358.47431 516.41354 z M 363.56254 518.77028 C 364.46557 518.75638 365.59653 520.17682 365.67278 522.14907 L 365.67077 522.14907 C 365.98372 530.50635 361.39793 532.88665 361.36612 532.88665 C 361.33842 532.88665 360.60459 532.22933 360.60459 532.22933 C 360.60459 532.22933 360.88887 531.63566 361.02944 530.88663 C 361.14539 530.26997 361.2058 529.36357 361.2058 529.36357 C 361.2058 529.36357 364.29384 528.70599 364.64271 527.64812 C 365.10751 525.43593 363.22754 522.8508 362.77094 520.61399 C 362.63448 519.98501 362.89491 518.97116 363.29199 518.82239 C 363.37914 518.78929 363.46912 518.77172 363.56254 518.77028 z M 362.54649 518.88251 C 362.33763 519.42401 362.23829 520.11507 362.35411 520.64805 C 362.52649 521.42991 363.71287 524.46573 363.79701 524.72224 C 363.84523 524.87513 363.96579 525.22347 364.11765 525.68417 C 364.34544 526.53068 364.90291 527.74829 363.80502 527.92067 C 362.14485 527.35223 361.58087 526.0887 359.2158 525.20321 C 357.30835 524.4901 355.72068 524.49728 354.69872 524.69018 C 353.33611 524.96311 351.95683 525.69623 350.43415 526.67817 C 351.47663 526.40934 352.47807 526.20105 353.6406 526.2934 C 354.62664 526.35702 356.43447 526.89493 358.00537 528.12107 C 356.12973 528.62589 352.25003 529.70419 351.04338 529.53592 C 349.77209 529.35533 348.20991 526.24107 348.79887 523.8565 C 349.36423 521.55915 352.64682 521.03121 355.03139 520.75828 C 355.5516 521.35955 356.31435 521.88887 356.93923 522.34547 C 358.58708 521.95659 359.82512 520.97029 360.71882 519.74825 C 361.26366 519.35526 361.88468 519.03847 362.54649 518.88251 z M 355.86306 524.98477 C 357.55187 524.96292 359.55216 525.42365 361.61262 526.96274 C 362.60687 527.69946 362.87134 527.83227 363.63268 528.14111 L 363.62666 528.14312 C 361.71101 529.31693 359.90703 529.18569 358.7168 528.13911 C 356.94479 526.66774 355.51058 525.98646 354.43219 525.91464 C 353.09831 525.8305 352.06772 526.08924 351.15761 526.37757 C 351.0954 526.40001 353.04839 525.02119 355.86306 524.98477 z M 358.24986 528.34152 L 358.24986 528.34352 C 358.28577 528.37533 358.31424 528.40991 358.34605 528.44172 C 358.99145 529.07582 359.82897 529.42007 360.81501 529.40365 C 360.94738 529.73609 360.9595 537.01087 350.81893 536.58608 C 350.65065 536.57787 347.54399 534.56987 347.64455 534.53396 C 351.22448 533.19495 351.46842 531.08341 351.71673 530.55396 C 352.35391 529.86034 356.42988 528.81889 358.02541 528.37358 C 358.14956 528.34177 358.19343 528.34152 358.24986 528.34152 z M 345.71667 530.63011 C 346.22734 530.61746 346.49783 531.40325 346.09343 533.59607 C 346.06071 533.94267 347.68903 535.02524 347.70066 535.03296 C 347.70199 535.03221 347.70333 535.03171 347.70467 535.03096 L 347.70467 535.03497 C 347.70467 535.03497 347.7007 535.03299 347.70066 535.03296 C 344.35339 536.92367 344.15761 538.06186 343.9371 540.11317 C 343.80063 539.93669 342.87503 537.03877 343.17156 534.52594 C 343.34727 532.89002 344.86555 530.6512 345.71667 530.63011 z M 346.5263 530.84655 C 347.33997 532.00908 349.46016 532.52621 350.14557 532.64216 C 350.2492 532.65857 348.63654 533.77647 347.35396 534.37364 C 346.9815 534.0966 346.61069 533.79237 346.43011 533.53996 C 346.43011 533.52868 346.426 533.52021 346.43011 533.5079 C 346.68662 532.10117 346.69868 531.27955 346.5263 530.84655 z "
     transform="matrix(.9746 0 0 .9746 -322.33 -489.99)" />
  <g
     fill="#f9f9f9"
     id="g13" />
  <path
     style="fill:#999999;fill-opacity:1;stroke-width:0.0330806"
     d=""
     id="path26" />
  <path
     style="fill:#999999;fill-opacity:1;stroke-width:0.0330806"
     d="M 5.8221916,44.928911 C 5.4101119,44.792163 5.1185434,44.503135 4.9766611,44.090747 4.884236,43.822108 4.8962293,43.729394 4.99575,43.943179 c 0.3033535,0.651647 0.976772,0.916006 1.7574207,0.689898 0.1934331,-0.05603 1.3129404,-0.622213 4.3569613,-2.203517 l 4.096639,-2.128118 0.505381,0.152153 c 3.929164,1.182938 8.328834,1.496761 12.522169,0.89319 6.722631,-0.967627 12.633845,-4.273635 16.258781,-9.093167 1.198796,-1.593857 2.125543,-3.362761 2.703684,-5.160579 0.09946,-0.309304 0.197723,-0.614472 0.218352,-0.678153 l 0.03751,-0.115782 -0.0184,0.130048 c -0.02609,0.1844 -0.281391,1.019513 -0.460201,1.505375 -0.759022,2.0624 -1.933349,4.01977 -3.459358,5.766069 -0.385806,0.441502 -1.30032,1.359716 -1.800003,1.807288 -3.81868,3.420436 -8.87956,5.603447 -14.423157,6.22143 -3.103441,0.345962 -6.29312,0.197837 -9.279118,-0.430913 -0.642946,-0.135382 -1.658228,-0.393607 -2.265031,-0.576083 -0.272369,-0.08191 -0.513418,-0.14892 -0.535664,-0.14892 -0.02225,0 -1.332685,0.671462 -2.912088,1.492138 -4.7262177,2.455797 -5.2341841,2.716248 -5.463652,2.80139 -0.2686419,0.09968 -0.8019376,0.132284 -1.0137784,0.06198 z"
     id="path27" />
  <path
     style="fill:#999999;fill-opacity:1;stroke-width:0.0330806"
     d="M 5.8670159,35.119396 C 4.9691029,34.251826 4.481196,33.72477 3.8918178,32.98571 2.6367395,31.411884 1.6874704,29.73413 1.0092623,27.891034 0.82186725,27.38177 0.49047289,26.261578 0.46283794,26.043989 c -0.009909,-0.07802 0.0347748,0.04423 0.0992969,0.271655 0.72037356,2.539193 1.87693126,4.703542 3.64317956,6.817743 0.4088697,0.489417 1.5895562,1.708378 2.0236721,2.089274 0.1823953,0.160035 0.2056133,0.193521 0.1866273,0.269167 -0.011926,0.04752 -0.033393,0.08639 -0.047705,0.08639 -0.014312,0 -0.2397138,-0.206472 -0.5008933,-0.458826 z"
     id="path28" />
  <path
     id="path30"
     style="fill:none;fill-opacity:1;stroke-width:0.0330806"
     d="m 30.90625,15.761719 c -0.164693,-0.0021 -1.070198,0.410963 -1.400391,0.646484 -0.110057,0.0785 -0.38479,0.33888 -0.611328,0.580078 -0.573137,0.610225 -1.01516,1.000394 -1.496093,1.306641 0.01603,0.03441 0.03028,0.0722 0.04297,0.117187 0.01514,0.05366 -0.08276,0.07298 -0.125,0.109375 -0.03035,0.01037 -0.06159,0.02043 -0.0918,0.03125 -0.0086,0.08327 -0.0032,0.172016 -0.05273,0.236328 -0.04376,0.05684 -0.136781,0.04599 -0.207031,0.06055 -0.114182,0.02367 -0.230145,0.03712 -0.345703,0.05273 -0.219011,0.02959 -0.439616,0.0543 -0.660157,0.07227 -0.08899,0.02973 -0.169231,0.05332 -0.234375,0.06836 -0.126348,0.02916 -0.157876,0.02958 -0.277343,-0.04297 -0.02788,3.99e-4 -0.0561,0.0019 -0.08398,0.002 -0.122231,-0.03814 -0.278597,-0.02278 -0.367187,-0.115234 -0.08042,-0.08392 -0.08614,-0.164595 -0.05273,-0.238281 -0.108776,-0.08239 -0.22315,-0.170268 -0.34375,-0.267579 -0.0769,-7.07e-4 -0.153998,-0.0032 -0.230468,-0.01172 -0.199036,-0.02225 -0.396926,-0.08771 -0.220703,-0.365235 -0.02454,-0.02117 -0.04984,-0.04123 -0.07422,-0.0625 -0.20475,-0.178644 -0.412921,-0.335056 -0.462891,-0.347656 -0.184785,-0.04661 -1.694202,0.192821 -2.548828,0.404297 -1.908554,0.47227 -3.044606,1.30081 -3.419922,2.496094 -0.07401,0.23576 -0.07639,0.292349 -0.07617,1.207031 2.6e-4,1.073657 0.0062,1.120405 0.28711,1.935547 0.37889,1.099555 1.028669,2.018069 1.644531,2.326172 0.232594,0.116365 0.25841,0.121093 0.578125,0.121093 0.947996,0 2.548953,-0.321437 5.527344,-1.111328 0.979373,-0.25974 0.925508,-0.240702 0.855468,-0.320312 -0.254301,-0.289033 -1.824988,-1.108143 -2.630859,-1.373047 -0.829022,-0.272516 -1.129827,-0.320049 -2.027344,-0.320313 -0.824807,-2.44e-4 -1.018696,0.02028 -1.916015,0.203125 -0.307042,0.06256 -0.562713,0.10721 -0.570313,0.09961 -0.03682,-0.03682 1.11957,-0.720503 1.775391,-1.048828 0.871193,-0.436147 1.572316,-0.694382 2.251953,-0.832032 0.337605,-0.06838 0.469119,-0.07617 1.253906,-0.07617 0.69471,-10e-7 0.951864,0.01259 1.240235,0.06055 1.035102,0.172141 1.931061,0.458649 2.787109,0.894532 0.500309,0.254748 0.934151,0.535053 1.667969,1.072265 1.059127,0.775362 1.68244,1.1311 1.976562,1.13086 0.275282,-2.24e-4 0.513097,-0.221296 0.560547,-0.521485 0.0725,-0.45861 -0.145894,-1.226245 -1.103516,-3.861328 -0.592861,-1.631374 -0.857119,-2.425747 -0.912109,-2.74414 -0.05012,-0.290216 -0.02115,-0.820202 0.06836,-1.240235 0.0365,-0.171283 0.05843,-0.318525 0.04883,-0.328125 -0.004,-0.004 -0.01246,-0.0057 -0.02344,-0.0059 z" />
  <path
     style="fill:none;fill-opacity:1;stroke-width:0.0330806"
     d="m 28.978635,25.500058 c -0.268159,-0.04289 -0.655673,-0.161578 -0.89891,-0.275308 -0.32709,-0.152936 -0.46757,-0.24786 -1.003916,-0.678359 -1.400035,-1.123738 -2.618,-1.778102 -3.63818,-1.954647 -0.249747,-0.04322 -0.456886,-0.05106 -1.008959,-0.03818 -0.772938,0.01803 -1.22103,0.0816 -1.913905,0.271528 -0.220957,0.06057 -0.406585,0.105431 -0.412507,0.0997 -0.01741,-0.01685 0.384506,-0.23392 0.757119,-0.408897 1.658142,-0.778652 3.612082,-1.026303 5.357025,-0.678972 1.479565,0.294507 2.536634,0.806454 4.333564,2.098777 0.26682,0.191893 0.5979,0.389056 0.933304,0.555796 l 0.519797,0.258408 -0.222071,0.124076 c -0.361914,0.20221 -0.888512,0.414144 -1.296059,0.521612 -0.331963,0.08754 -0.448211,0.101897 -0.89431,0.110478 -0.282012,0.0054 -0.557409,0.0027 -0.611992,-0.006 z"
     id="path31" />
  <path
     style="fill:none;fill-opacity:1;stroke-width:0.0330806"
     d="m 19.517574,32.918554 c -0.21477,-0.09459 -1.196229,-0.706746 -2.11716,-1.320519 -0.690601,-0.460265 -0.889252,-0.606541 -0.853043,-0.628136 0.01432,-0.0085 0.157157,-0.06959 0.317427,-0.135671 0.595745,-0.245634 1.273727,-0.621566 1.689939,-0.937048 0.890797,-0.675209 1.421123,-1.397991 1.776632,-2.421374 0.06187,-0.178099 0.149549,-0.35884 0.204364,-0.421271 0.202968,-0.231168 1.225386,-0.658364 2.58763,-1.081187 1.139134,-0.353572 3.500873,-1.01401 3.626121,-1.01401 0.03929,0 0.158864,0.08221 0.27224,0.187176 0.496226,0.459418 1.12685,0.735165 1.84837,0.808219 0.205253,0.02078 0.394025,0.04389 0.419494,0.05135 0.06592,0.01931 0.0288,0.745676 -0.06185,1.210201 -0.411884,2.110735 -1.670202,3.734005 -3.649477,4.707942 -1.441442,0.709286 -3.128597,1.042133 -5.266754,1.039042 -0.501706,-7.26e-4 -0.722263,-0.01315 -0.793935,-0.04471 z"
     id="path32" />
  <path
     style="fill:none;fill-opacity:1;stroke-width:0.0330806"
     d="m 15.857403,30.508615 c -0.184838,-0.150104 -0.380885,-0.328503 -0.435659,-0.396443 l -0.09959,-0.123528 0.07164,-0.488464 c 0.136022,-0.927422 0.159459,-1.462518 0.08275,-1.889271 l -0.01989,-0.110663 0.153979,0.164615 c 0.538601,0.575809 1.85628,1.188822 3.074187,1.430181 0.190555,0.03776 0.192058,0.03896 0.132323,0.105006 -0.09125,0.1009 -1.126243,0.779201 -1.627155,1.066388 -0.416645,0.238873 -0.941899,0.515094 -0.979489,0.515094 -0.0094,0 -0.168255,-0.122812 -0.353093,-0.272915 z"
     id="path33" />
  <path
     style="fill:none;fill-opacity:1;stroke-width:0.0330806"
     d="m 12.722891,35.96398 c -0.218905,-0.683377 -0.418855,-1.612115 -0.534207,-2.481318 -0.08725,-0.657403 -0.119074,-1.762572 -0.06636,-2.304164 0.06803,-0.698916 0.298351,-1.429885 0.666662,-2.115752 0.578317,-1.076937 1.443925,-1.945323 1.870153,-1.876156 0.211684,0.03435 0.366033,0.237979 0.438095,0.57796 0.05779,0.272639 0.04334,0.99354 -0.03095,1.544892 -0.03678,0.272915 -0.07549,0.578656 -0.08604,0.679424 l -0.01917,0.183215 0.172383,0.188614 c 0.183721,0.20102 0.594512,0.540073 1.068699,0.882066 l 0.290365,0.209417 -0.434616,0.260954 c -1.125513,0.675787 -1.87103,1.281242 -2.343741,1.903417 -0.231264,0.304386 -0.51199,0.88468 -0.612921,1.26698 -0.08595,0.325571 -0.215365,1.093653 -0.215979,1.281874 -6.19e-4,0.190157 -0.06088,0.115404 -0.162366,-0.201423 z"
     id="path34" />
  <path
     id="path35"
     style="fill:none;fill-opacity:1;stroke-width:0.0330806"
     d="m 26.978516,13.347656 c -0.05779,0 -1.164667,0.39992 -1.671875,0.603516 -0.539947,0.216738 -1.277943,0.571114 -1.488282,0.714844 -0.150651,0.102944 -0.222846,0.272252 -0.285156,0.673828 -0.05308,0.342104 -0.0055,0.712704 0.134766,1.080078 0.160788,-3.99e-4 0.314864,2.63e-4 0.466797,0.002 1.9e-5,-0.0039 0.0018,-0.0079 0.002,-0.01172 -0.0067,-0.04594 -0.007,-0.09186 0,-0.134765 0.0038,-0.02306 0.02681,-0.02585 0.05469,-0.02344 h 0.002 c 0.01433,-0.01075 0.03059,-0.01772 0.05078,-0.01953 -0.0064,-0.0048 -0.01213,-0.01036 -0.01758,-0.01563 -0.03449,-2e-5 -0.06842,-0.0029 -0.101562,-0.01172 -0.05028,-0.01337 -0.137566,-0.02422 -0.134766,-0.07617 5.65e-4,-0.01031 0.0012,-0.01772 0.002,-0.02734 -0.156106,-0.0025 -0.326172,-0.02288 -0.378907,-0.109374 -0.177407,-0.290987 0.334124,-0.325084 0.433594,-0.339844 0.120654,-0.01524 0.337767,-0.04483 0.460937,-0.04883 0.0432,-0.0014 0.0926,-0.01748 0.136719,-0.01758 0.02647,-6.2e-5 0.0514,0.0057 0.07031,0.02344 0.0503,0.04719 0.08373,0.08857 0.107422,0.125 0.161895,-0.01089 0.324271,-0.02517 0.486328,-0.0332 0.06472,-0.0032 0.133639,-0.02908 0.193359,-0.0039 0.137593,0.058 0.182959,0.116699 0.171875,0.177734 0.04207,0.0023 0.08291,0.0099 0.119141,0.03125 0.03251,0.01914 0.05977,0.03821 0.08594,0.05664 0.413534,0.0046 0.826785,0.0104 1.240235,0.01953 0.254706,0.0056 0.509098,0.0095 0.763671,0.01953 0.200733,0.0079 0.413457,-0.0373 0.601563,0.0332 0.05577,0.0209 0.10457,0.05511 0.148437,0.0957 0.0042,-0.0058 0.0072,-0.01218 0.01172,-0.01758 0.06864,0.03581 0.07424,0.03881 0.01172,0.04102 0.02386,0.02388 0.04742,0.04858 0.07031,0.07422 0.143597,-0.223118 0.269532,-0.439112 0.269532,-0.478516 0,-0.01144 -0.0875,-0.01953 -0.19336,-0.01953 -0.949805,0 -1.792968,-0.982646 -1.792968,-2.089844 0,-0.166765 -0.01296,-0.292969 -0.03125,-0.292969 z m 1.677734,2.806641 c -0.0079,-0.0079 -0.01529,-0.0159 -0.02344,-0.02344 -0.006,0.0083 -0.01198,0.01651 -0.01758,0.02539 0.01282,-3.66e-4 0.03157,-0.0016 0.04102,-0.002 z m -4.041016,-0.490235 c -1.78e-4,0.0033 8e-5,0.0065 0,0.0098 0.0033,-0.0012 0.0065,-0.0027 0.0098,-0.0039 -0.0032,-0.0025 -0.0095,-0.01 -0.0098,-0.0059 z m 3.94336,0.816407 c -0.189209,0.02691 -0.409705,0.04796 -0.591797,0.06445 -0.01892,0.0077 -0.03769,0.01593 -0.05664,0.02344 -0.0027,0.0011 -0.0051,0.0028 -0.0078,0.0039 -0.203559,0.09262 -0.404076,0.18966 -0.603516,0.291015 -0.0065,0.0039 -0.01307,0.0078 -0.01953,0.01172 0.0031,0.0076 0.0038,0.01432 0.0059,0.02148 0.05991,-0.0063 0.119812,-0.01271 0.179688,-0.01758 0.07617,-0.0062 0.184855,-0.07445 0.228515,-0.01172 0.06733,0.09678 0.08723,0.266355 0.0078,0.353515 l -0.002,0.002 c 0.04266,0.07918 -0.0025,0.19577 -0.169922,0.251953 -0.209258,0.07022 -0.416791,0.141601 -0.625,0.214844 -0.02005,0.01129 -0.05128,0.01922 -0.06836,0.03125 -0.173549,0.0624 -0.348445,0.119661 -0.523438,0.177735 -0.0078,0.0026 -0.01566,0.0052 -0.02344,0.0078 -0.0013,4.21e-4 -0.0026,0.0014 -0.0039,0.002 -0.0325,0.01271 -0.06861,0.0491 -0.09766,0.04687 -0.0016,0.02818 -0.004,0.05723 -0.0098,0.08594 0.177997,-1.01e-4 0.355401,2.38e-4 0.533204,0.0078 0.0228,9.75e-4 0.04236,0.0016 0.06445,0.002 0.655201,-0.360209 1.2629,-0.874581 1.703125,-1.458984 0.02558,-0.03396 0.05224,-0.07183 0.08008,-0.111328 z m -4.339844,0.302734 c -0.123848,0.0055 -0.247466,0.01063 -0.371094,0.01563 0.02875,0.05138 0.05951,0.101561 0.0918,0.152344 0.07945,-0.01075 0.158767,-0.02251 0.238281,-0.0332 0.07535,-0.01054 0.170849,-0.02355 0.25586,-0.03516 -0.03527,-0.006 -0.06965,-0.01504 -0.101563,-0.03125 -0.04363,-0.02217 -0.08039,-0.04488 -0.113281,-0.06836 z m 0.541016,0.597656 c -0.333886,0.0035 -0.387012,0.0048 -0.492188,0.0059 0.09933,0.112104 0.221106,0.236376 0.351563,0.363281 0.239465,-0.08869 0.641771,-0.211038 0.859375,-0.279297 0.03747,-0.01185 0.129139,-0.0402 0.207031,-0.06445 -0.04435,-0.0067 -0.08862,-0.01201 -0.132813,-0.01563 -0.06815,0.03625 -0.137391,0.09255 -0.203125,0.06445 -0.0048,-0.0021 -0.0091,-0.0054 -0.01367,-0.0078 -0.01954,0.0094 -0.03896,0.02019 -0.05859,0.0293 -0.0027,-0.02994 -0.0097,-0.06086 -0.01758,-0.0918 -0.166638,-0.0015 -0.333236,-0.003 -0.5,-0.0039 z m 1.15625,0.992188 c -0.05085,0.03534 -0.09832,0.06138 -0.189454,0.113281 0.07379,-0.02119 0.167776,-0.05426 0.304688,-0.101562 0.01041,-0.0036 0.02085,-0.008 0.03125,-0.01172 -0.04876,-6e-6 -0.09774,-2.04e-4 -0.146484,0 z" />
  <path
     style="fill:none;fill-opacity:1;stroke-width:0.0330806"
     d="m 23.716246,13.968298 c 0.04679,-0.74449 0.179432,-1.320024 0.402172,-1.745004 0.320234,-0.610995 0.780489,-0.946294 1.965662,-1.431997 1.383017,-0.566783 2.274372,-1.1360449 2.828017,-1.8061072 0.09077,-0.1098499 0.176061,-0.1886922 0.189548,-0.1752052 0.06013,0.060125 -0.1073,0.7385628 -0.327061,1.3253054 -0.384888,1.027619 -0.952549,1.943098 -1.575593,2.540992 -0.34662,0.332628 -0.553446,0.436914 -1.726903,0.870739 -0.883005,0.326446 -1.348095,0.528907 -1.589941,0.692126 -0.08256,0.05572 -0.158924,0.101308 -0.169699,0.101308 -0.01077,0 -0.0091,-0.167471 0.0038,-0.372157 z"
     id="path36" />
  <path
     style="fill:none;fill-opacity:1;stroke-width:0.0330806"
     d="m 28.234321,11.839081 c 0,-0.01118 0.103091,-0.208422 0.229091,-0.438318 0.695087,-1.268238 1.119789,-2.704273 1.292743,-4.3711283 0.05711,-0.5503645 0.05773,-0.5513322 0.170028,-0.264645 0.548918,1.4013083 0.456252,2.5719801 -0.292985,3.7013573 -0.317835,0.479095 -1.398877,1.539933 -1.398877,1.372734 z"
     id="path37" />
  <path
     style="fill:none;fill-opacity:1;stroke-width:0.0330806"
     d="m 28.442267,15.253798 c -0.762698,-0.249284 -1.186259,-1.155921 -0.899077,-1.924486 0.05429,-0.145293 0.125677,-0.248064 0.274728,-0.39551 0.286787,-0.283697 1.344718,-1.074395 1.43751,-1.074395 0.125382,0 0.541273,0.736767 0.653569,1.157822 0.07663,0.287322 0.07747,0.83681 0.0017,1.124742 -0.125177,0.475844 -0.39211,0.861983 -0.71879,1.039785 -0.207497,0.112934 -0.529796,0.143906 -0.74967,0.07204 z"
     id="path38" />
  <path
     style="fill:none;fill-opacity:1;stroke-width:0.0330806"
     d="m 29.487558,29.019129 -0.348024,-0.306852 0.09512,-0.230708 c 0.214626,-0.520562 0.345744,-1.128262 0.437127,-2.025968 0.05012,-0.492377 0.06093,-0.536924 0.130315,-0.536924 0.105001,0 1.07232,-0.285883 1.475643,-0.436114 1.031575,-0.384244 1.636586,-0.797087 1.784828,-1.217918 0.02243,-0.06368 0.04867,-0.316747 0.05831,-0.562371 0.03702,-0.94337 -0.160661,-1.717949 -0.907579,-3.556168 -0.802936,-1.976082 -1.002234,-2.598426 -1.001104,-3.12612 9.43e-4,-0.439691 0.152267,-0.966666 0.338491,-1.178763 0.156632,-0.178394 0.266573,-0.221148 0.521728,-0.202892 0.783959,0.05609 1.591473,1.117688 1.866886,2.4543 0.170096,0.825493 0.14003,2.735439 -0.06502,4.130049 -0.399709,2.718622 -1.495163,4.99719 -3.092755,6.433002 -0.320709,0.288232 -0.842243,0.6703 -0.914978,0.6703 -0.01703,0 -0.187581,-0.138083 -0.378994,-0.306853 z"
     id="path39" />
</svg>
