<svg width="22" height="22" viewBox="0 0 22 22" fill="none" xmlns="http://www.w3.org/2000/svg">
<path d="M11.001 0.806152C8.07425 0.806152 5.31954 1.73562 3.24511 3.42366C1.1528 5.12645 0.000976562 7.39509 0.000976562 9.81347C0.000976562 12.1215 1.05085 14.2937 2.96582 15.967C2.93142 16.0447 2.90356 16.1265 2.88614 16.2122L2.25683 19.3069C2.18223 19.6745 2.28299 19.8939 2.38036 20.0132C2.49293 20.1508 2.66005 20.2271 2.85034 20.2271C2.99417 20.2271 3.1483 20.1849 3.30956 20.1009L6.96997 18.1995C8.23679 18.6074 9.59836 18.8217 10.9983 18.8217C13.925 18.8217 16.6797 17.8913 18.7541 16.2033C20.8464 14.5005 21.9992 12.2319 21.9992 9.81347C21.9992 7.39553 20.8464 5.12555 18.7541 3.42276L18.7568 3.42366C16.6824 1.73562 13.9277 0.806152 11.001 0.806152ZM13.6623 2.6753C13.8058 3.04059 13.9221 3.33418 13.8772 3.81039C13.8002 4.34205 13.5046 4.69119 13.2828 4.90431L13.2819 4.90341C12.9331 5.23846 12.8504 5.28739 13.0026 5.02247C13.488 4.18097 13.5927 3.38801 13.6623 2.6753ZM13.3347 3.75399C13.4332 3.73972 13.1231 5.00175 12.3948 5.63297C12.1317 5.8603 11.1577 6.06637 10.8479 6.34733C10.8891 5.70842 10.9143 5.11928 11.6536 4.80761V4.80673C11.9253 4.6564 12.7808 4.44147 13.3088 3.77368C13.319 3.76082 13.3281 3.75494 13.3347 3.75399ZM13.4135 5.16032C13.4653 5.16032 13.6551 5.45921 13.7143 5.69205V5.69295C13.8715 6.31032 13.4619 6.9947 12.9068 6.68303C12.5791 6.50016 12.4357 5.96082 12.7314 5.66519C12.862 5.53594 13.3667 5.16032 13.4135 5.16032ZM12.393 5.83706C12.3302 6.21885 12.5273 6.65727 12.8513 6.83969C13.0177 6.93273 13.168 6.95965 13.3096 6.93994C13.0392 7.53256 12.4342 8.07145 11.7073 8.24332C11.1541 7.83861 10.5472 7.26225 10.8479 6.49592C10.9946 6.37951 11.4855 6.12903 12.393 5.83706ZM14.6658 6.8898C15.0692 6.88359 15.5744 7.51809 15.6085 8.39908H15.6076C15.7474 12.1322 13.6989 13.1955 13.6847 13.1955C13.6724 13.1955 13.3446 12.9018 13.3446 12.9018C13.3446 12.9018 13.4715 12.6367 13.5343 12.3021C13.5861 12.0266 13.6131 11.6218 13.6131 11.6218C13.6131 11.6218 14.9925 11.328 15.1483 10.8555C15.356 9.86731 14.5162 8.71256 14.3122 7.71339C14.2513 7.43243 14.3676 6.97954 14.545 6.91309C14.5839 6.8983 14.6241 6.89045 14.6658 6.8898ZM14.212 6.93994C14.1187 7.18183 14.0743 7.49053 14.126 7.7286C14.203 8.07786 14.733 9.43392 14.7706 9.5485C14.7921 9.61679 14.846 9.77239 14.9138 9.97818C15.0156 10.3563 15.2646 10.9002 14.7742 10.9772C14.0326 10.7233 13.7806 10.1589 12.7242 9.76334C11.8721 9.4448 11.163 9.44802 10.7065 9.53418C10.0978 9.6561 9.48167 9.98357 8.8015 10.4222C9.26717 10.3021 9.71451 10.2091 10.2338 10.2503C10.6743 10.2787 11.4818 10.519 12.1835 11.0667C11.3457 11.2922 9.61264 11.7739 9.07364 11.6987C8.50576 11.6181 7.80795 10.227 8.07103 9.16179C8.32358 8.13558 9.78989 7.89976 10.8551 7.77784C11.0874 8.04643 11.4281 8.28285 11.7073 8.48681C12.4434 8.3131 12.9964 7.87253 13.3956 7.32665C13.639 7.15111 13.9164 7.00961 14.212 6.93994ZM11.2266 9.66576C11.9809 9.656 12.8744 9.86183 13.7948 10.5493C14.239 10.8784 14.3571 10.9377 14.6972 11.0757L14.6945 11.0766C13.8388 11.6009 13.033 11.5423 12.5013 11.0748C11.7098 10.4175 11.0691 10.1132 10.5874 10.0811C9.99156 10.0435 9.53121 10.1591 9.12467 10.2879C9.09689 10.2979 9.96927 9.68203 11.2266 9.66576ZM12.2927 11.1652V11.1661C12.3088 11.1803 12.3215 11.1957 12.3357 11.21C12.624 11.4932 12.9981 11.647 13.4385 11.6396C13.4977 11.7881 13.5031 15.0377 8.97339 14.848C8.89822 14.8443 7.5105 13.9473 7.55542 13.9313C9.15454 13.3332 9.26351 12.39 9.37443 12.1535C9.65905 11.8436 11.4798 11.3784 12.1925 11.1795C12.2479 11.1653 12.2675 11.1652 12.2927 11.1652ZM6.69425 12.1875C6.92236 12.1819 7.04319 12.5329 6.86255 13.5124C6.84793 13.6672 7.57528 14.1508 7.58048 14.1542C7.58107 14.1539 7.58168 14.1536 7.58227 14.1533V14.1551C7.58227 14.1551 7.58049 14.1542 7.58048 14.1542C6.08528 14.9988 5.99783 15.5072 5.89933 16.4235C5.83837 16.3447 5.42491 15.0502 5.55737 13.9277C5.63586 13.197 6.31406 12.1969 6.69425 12.1875ZM7.0559 12.2842C7.41936 12.8035 8.36643 13.0345 8.6726 13.0863C8.71889 13.0936 7.99853 13.593 7.42562 13.8597C7.25924 13.736 7.0936 13.6001 7.01294 13.4873C7.01294 13.4823 7.0111 13.4785 7.01294 13.473C7.12752 12.8446 7.13291 12.4776 7.0559 12.2842Z" fill="black"/>
<path d="M2.68946 16.0964C2.27792 15.6987 2.05429 15.4572 1.78416 15.1184C1.20892 14.3971 0.773835 13.6281 0.462989 12.7834C0.3771 12.55 0.225211 12.0365 0.212545 11.9368C0.208003 11.9011 0.228483 11.9571 0.258056 12.0613C0.588227 13.2251 1.11832 14.2171 1.92785 15.1861C2.11525 15.4104 2.65639 15.9691 2.85536 16.1437C2.93896 16.2171 2.9496 16.2324 2.9409 16.2671C2.93543 16.2889 2.9256 16.3067 2.91904 16.3067C2.91248 16.3067 2.80917 16.212 2.68946 16.0964Z" fill="#999999"/>
</svg>
