<svg width="52" height="52" viewBox="0 0 52 52" fill="none" xmlns="http://www.w3.org/2000/svg">
<path fill-rule="evenodd" clip-rule="evenodd" d="M26.1428 0.285645C11.9398 0.285645 0.428467 12.0884 0.428467 26.6508C0.428467 38.2976 7.79419 48.1813 18.0139 51.6705C19.3004 51.9084 19.7645 51.0969 19.7645 50.3991C19.7645 49.7726 19.7438 48.1125 19.7361 45.9159C12.5818 47.5072 11.071 42.379 11.071 42.379C9.90568 39.3338 8.217 38.5223 8.217 38.5223C5.88379 36.886 8.39489 36.923 8.39489 36.923C10.9782 37.1081 12.3317 39.6405 12.3317 39.6405C14.6262 43.669 18.3542 42.5059 19.8134 41.8318C20.048 40.1268 20.7184 38.9637 21.4506 38.3055C15.7426 37.6421 9.74068 35.3793 9.74068 25.2736C9.74068 22.4003 10.7436 20.0424 12.3807 18.2026C12.1203 17.5338 11.2308 14.8507 12.6359 11.224C12.6359 11.224 14.7938 10.5129 19.7052 13.9229C21.8027 13.3378 23.9664 13.0392 26.1402 13.0347C28.314 13.0383 30.4778 13.337 32.5752 13.9229C37.4891 10.5103 39.6444 11.224 39.6444 11.224C41.0495 14.8507 40.1678 17.5338 39.8997 18.2026C41.5497 20.0424 42.5397 22.3976 42.5397 25.2736C42.5397 35.4057 36.5326 37.6315 30.804 38.2844C31.7192 39.0986 32.5443 40.7057 32.5443 43.1641C32.5443 46.6904 32.5133 49.5347 32.5133 50.3991C32.5133 51.1048 32.9722 51.9243 34.2845 51.6652C44.4991 48.1707 51.857 38.295 51.857 26.6508C51.857 12.0884 40.3457 0.285645 26.1428 0.285645Z" fill="black"/>
</svg>
