<svg width="52" height="41" viewBox="0 0 52 41" fill="none" xmlns="http://www.w3.org/2000/svg">
<path d="M33.1428 0.714355C32.633 1.63049 32.1787 2.57661 31.7823 3.54758C27.8876 2.92955 23.9203 2.92955 20.0255 3.54758C19.6292 2.57661 19.1748 1.63049 18.665 0.714355C14.9963 1.34333 11.4298 2.46976 8.0634 4.06271C2.04368 12.7795 -0.686316 23.362 0.362457 33.9146C4.28542 36.8737 8.68835 39.1305 13.3771 40.5856C14.4447 39.1705 15.3975 37.6718 16.2264 36.1039C14.6967 35.538 13.2264 34.8219 11.8369 33.9661C12.218 33.7117 12.5785 33.4275 12.915 33.1162C16.9669 35.0745 21.4065 36.0914 25.9039 36.0914C30.4014 36.0914 34.841 35.0745 38.8928 33.1162C39.2522 33.4252 39.6116 33.7086 39.971 33.9661C38.5739 34.8152 37.1051 35.5392 35.5814 36.1297C36.3759 37.7331 37.3033 39.2667 38.3538 40.7144C43.0366 39.2643 47.4319 37.0069 51.3427 34.0434C52.4167 23.4889 49.6844 12.8977 43.6418 4.1915C40.3132 2.56558 36.7819 1.39606 33.1428 0.714355ZM17.3815 27.8876C16.097 27.795 14.8981 27.2068 14.0366 26.2463C13.175 25.2858 12.7178 24.0277 12.761 22.7362C12.7113 21.4431 13.1663 20.1814 14.0291 19.2195C14.8919 18.2575 16.0946 17.6711 17.3815 17.5849C18.6685 17.6711 19.8712 18.2575 20.734 19.2195C21.5968 20.1814 22.0518 21.4431 22.0021 22.7362C22.0518 24.0294 21.5968 25.2911 20.734 26.253C19.8712 27.215 18.6685 27.8014 17.3815 27.8876ZM34.4263 27.8876C33.1417 27.795 31.9429 27.2068 31.0813 26.2463C30.2198 25.2858 29.7626 24.0277 29.8057 22.7362C29.7561 21.4431 30.211 20.1814 31.0739 19.2195C31.9367 18.2575 33.1394 17.6711 34.4263 17.5849C35.7156 17.6647 36.9222 18.2492 37.7863 19.2126C38.6505 20.176 39.1031 21.4413 39.0469 22.7362C39.1031 24.0312 38.6505 25.2965 37.7863 26.2599C36.9222 27.2233 35.7156 27.8078 34.4263 27.8876Z" fill="black"/>
</svg>
