<svg width="52" height="52" viewBox="0 0 52 52" fill="none" xmlns="http://www.w3.org/2000/svg">
<path d="M6.46666 12.6689C9.88034 12.6689 12.6477 9.89679 12.6477 6.47726C12.6477 3.05772 9.88034 0.285645 6.46666 0.285645C3.05298 0.285645 0.285645 3.05772 0.285645 6.47726C0.285645 9.89679 3.05298 12.6689 6.46666 12.6689Z" fill="black"/>
<path d="M18.4842 17.3607V51.7117H29.1315V34.7243C29.1315 30.2419 29.9733 25.901 35.5216 25.901C40.9935 25.901 41.0613 31.0258 41.0613 35.0073V51.7145H51.7142V32.8765C51.7142 23.623 49.7255 16.5117 38.9285 16.5117C33.7447 16.5117 30.27 19.3613 28.849 22.0581H28.7049V17.3607H18.4842ZM1.1333 17.3607H11.7975V51.7117H1.1333V17.3607Z" fill="black"/>
</svg>
