<svg width="40" height="40" viewBox="0 0 40 40" fill="none" xmlns="http://www.w3.org/2000/svg">
<circle cx="20" cy="20" r="19.5" stroke="#333333"/>
<path d="M27.7682 13.33C26.4382 12.71 24.9982 12.26 23.4982 12C23.485 11.9996 23.4719 12.0021 23.4598 12.0073C23.4477 12.0125 23.4369 12.0202 23.4282 12.03C23.2482 12.36 23.0382 12.79 22.8982 13.12C21.3072 12.88 19.6892 12.88 18.0982 13.12C17.9582 12.78 17.7482 12.36 17.5582 12.03C17.5482 12.01 17.5182 12 17.4882 12C15.9882 12.26 14.5582 12.71 13.2182 13.33C13.2082 13.33 13.1982 13.34 13.1882 13.35C10.4682 17.42 9.71816 21.38 10.0882 25.3C10.0882 25.32 10.0982 25.34 10.1182 25.35C11.9182 26.67 13.6482 27.47 15.3582 28C15.3882 28.01 15.4182 28 15.4282 27.98C15.8282 27.43 16.1882 26.85 16.4982 26.24C16.5182 26.2 16.4982 26.16 16.4582 26.15C15.8882 25.93 15.3482 25.67 14.8182 25.37C14.7782 25.35 14.7782 25.29 14.8082 25.26C14.9182 25.18 15.0282 25.09 15.1382 25.01C15.1582 24.99 15.1882 24.99 15.2082 25C18.6482 26.57 22.3582 26.57 25.7582 25C25.7782 24.99 25.8082 24.99 25.8282 25.01C25.9382 25.1 26.0482 25.18 26.1582 25.27C26.1982 25.3 26.1982 25.36 26.1482 25.38C25.6282 25.69 25.0782 25.94 24.5082 26.16C24.4682 26.17 24.4582 26.22 24.4682 26.25C24.7882 26.86 25.1482 27.44 25.5382 27.99C25.5682 28 25.5982 28.01 25.6282 28C27.3482 27.47 29.0782 26.67 30.8782 25.35C30.8982 25.34 30.9082 25.32 30.9082 25.3C31.3482 20.77 30.1782 16.84 27.8082 13.35C27.7982 13.34 27.7882 13.33 27.7682 13.33ZM17.0182 22.91C15.9882 22.91 15.1282 21.96 15.1282 20.79C15.1282 19.62 15.9682 18.67 17.0182 18.67C18.0782 18.67 18.9182 19.63 18.9082 20.79C18.9082 21.96 18.0682 22.91 17.0182 22.91ZM23.9882 22.91C22.9582 22.91 22.0982 21.96 22.0982 20.79C22.0982 19.62 22.9382 18.67 23.9882 18.67C25.0482 18.67 25.8882 19.63 25.8782 20.79C25.8782 21.96 25.0482 22.91 23.9882 22.91Z" fill="#333333"/>
</svg>
