<svg width="40" height="40" viewBox="0 0 40 40" fill="none" xmlns="http://www.w3.org/2000/svg">
<circle cx="20" cy="20" r="19.5" stroke="black"/>
<path d="M12.8938 12.72C12.5813 11.9225 12.5938 11.0113 12.7325 10.1775C13.6877 10.4637 14.5849 10.9165 15.3825 11.515C15.7325 11.7825 16.1913 11.8688 16.6188 11.74C17.7157 11.4118 18.855 11.2467 20 11.25C21.2013 11.25 22.3425 11.425 23.3787 11.7387C23.8062 11.8687 24.265 11.7812 24.6138 11.5138C25.411 10.9154 26.3077 10.4626 27.2625 10.1762C27.4012 11.01 27.4125 11.9212 27.1025 12.7175C26.915 13.1975 27.0087 13.75 27.3625 14.1425C28.2675 15.1462 28.75 16.3 28.75 17.5C28.75 20.1425 26.2875 22.7337 22.3325 23.5225C21.3425 23.72 20.9562 24.9662 21.7137 25.68C22.2 26.1375 22.5 26.7825 22.5 27.5V31.25C22.5 31.5815 22.6317 31.8995 22.8661 32.1339C23.1005 32.3683 23.4185 32.5 23.75 32.5C24.0815 32.5 24.3995 32.3683 24.6339 32.1339C24.8683 31.8995 25 31.5815 25 31.25V27.5C25 26.7875 24.85 26.11 24.5825 25.4963C28.3538 24.1875 31.25 21.2412 31.25 17.5C31.25 15.8162 30.645 14.2687 29.6412 12.9725C29.9037 11.9475 29.88 10.915 29.78 10.1225C29.6912 9.4125 29.5675 8.4825 29.0675 7.9275C28.3237 7.10375 27.0925 7.58875 26.2175 7.8875C25.2789 8.20511 24.3859 8.64426 23.5612 9.19375C22.3975 8.89677 21.201 8.74767 20 8.75C18.7575 8.75 17.5588 8.90625 16.4363 9.195C15.6117 8.6455 14.7186 8.20635 13.78 7.88875C12.905 7.58875 11.6725 7.10375 10.9288 7.9275C10.4187 8.4925 10.3125 9.34875 10.2213 10.0762L10.215 10.1237C10.115 10.9175 10.0925 11.9513 10.355 12.9775C9.355 14.2725 8.75 15.8175 8.75 17.5C8.75 21.24 11.6462 24.1875 15.4175 25.4963C15.1445 26.1204 15.0024 26.7938 15 27.475L14.79 27.5175C13.8938 27.6413 13.32 27.53 12.93 27.365C11.98 26.9625 11.49 25.9487 10.8925 25.1737C10.52 24.6925 9.9775 24.0912 9.145 23.8137C8.98922 23.7619 8.82475 23.7412 8.66097 23.7529C8.4972 23.7646 8.33733 23.8084 8.1905 23.8819C7.89396 24.0303 7.66851 24.2904 7.56375 24.605C7.45899 24.9196 7.4835 25.263 7.63189 25.5595C7.78028 25.856 8.04039 26.0815 8.355 26.1862C9.0525 26.4187 9.535 27.6137 9.9775 28.1437C10.4437 28.7037 11.0637 29.2887 11.9525 29.6663C12.805 30.0287 13.8062 30.1575 15 30.0113V31.25C15 31.5815 15.1317 31.8995 15.3661 32.1339C15.6005 32.3683 15.9185 32.5 16.25 32.5C16.5815 32.5 16.8995 32.3683 17.1339 32.1339C17.3683 31.8995 17.5 31.5815 17.5 31.25V27.5C17.5 26.7825 17.8 26.1375 18.2862 25.68C19.045 24.965 18.6575 23.72 17.6675 23.5225C13.7112 22.7337 11.25 20.1425 11.25 17.5C11.25 16.3025 11.7312 15.1488 12.635 14.145C12.9887 13.7525 13.0813 13.2 12.8938 12.72Z" fill="black"/>
</svg>
