<svg width="40" height="40" viewBox="0 0 40 40" fill="none" xmlns="http://www.w3.org/2000/svg">
<path d="M20 14.3469C18.8829 14.3469 17.7909 14.6778 16.8621 15.2979C15.9333 15.9179 15.2093 16.7992 14.7818 17.8303C14.3544 18.8614 14.2425 19.9959 14.4604 21.0905C14.6784 22.1851 15.2163 23.1906 16.0062 23.9797C16.7961 24.7689 17.8025 25.3063 18.8981 25.524C19.9937 25.7418 21.1294 25.63 22.1614 25.2029C23.1935 24.7758 24.0756 24.0526 24.6962 23.1246C25.3168 22.1967 25.6481 21.1057 25.6481 19.9897C25.6499 19.2481 25.5051 18.5136 25.2219 17.8281C24.9387 17.1427 24.5227 16.5199 23.9979 15.9956C23.473 15.4712 22.8497 15.0557 22.1636 14.7727C21.4775 14.4898 20.7422 14.3451 20 14.3469ZM20 23.6644C19.2725 23.6644 18.5614 23.4489 17.9565 23.0451C17.3517 22.6413 16.8802 22.0674 16.6018 21.3959C16.3234 20.7245 16.2506 19.9856 16.3925 19.2728C16.5344 18.56 16.8848 17.9052 17.3992 17.3913C17.9136 16.8774 18.5689 16.5274 19.2824 16.3856C19.9959 16.2438 20.7355 16.3166 21.4076 16.5947C22.0797 16.8728 22.6541 17.3438 23.0583 17.9481C23.4624 18.5524 23.6781 19.2629 23.6781 19.9897C23.6781 20.9643 23.2906 21.8989 22.6008 22.5881C21.9111 23.2772 20.9755 23.6644 20 23.6644ZM27.2048 14.1129C27.2048 14.3851 27.124 14.6512 26.9726 14.8775C26.8212 15.1039 26.6061 15.2803 26.3544 15.3844C26.1026 15.4886 25.8256 15.5159 25.5584 15.4628C25.2912 15.4097 25.0457 15.2786 24.8531 15.0861C24.6604 14.8936 24.5292 14.6484 24.4761 14.3814C24.4229 14.1144 24.4502 13.8377 24.5545 13.5862C24.6587 13.3348 24.8353 13.1198 25.0618 12.9686C25.2884 12.8173 25.5547 12.7366 25.8272 12.7366C26.1925 12.7366 26.5429 12.8816 26.8013 13.1397C27.0596 13.3978 27.2048 13.7479 27.2048 14.1129ZM30.938 15.4892C30.9796 13.778 30.3406 12.12 29.1609 10.8786C28.549 10.2876 27.8264 9.82299 27.0345 9.51126C26.2426 9.19953 25.397 9.04684 24.546 9.06193C22.7552 8.97936 17.2448 8.97936 15.454 9.06193C13.7419 9.0249 12.0841 9.66269 10.8391 10.8373C9.65944 12.0788 9.02041 13.7367 9.06199 15.4479C8.97934 17.2371 8.97934 22.7423 9.06199 24.5314C9.02041 26.2427 9.65944 27.9006 10.8391 29.142C12.0841 30.3167 13.7419 30.9545 15.454 30.9174C17.2724 31.0275 22.7276 31.0275 24.546 30.9174C26.2589 30.959 27.9183 30.3205 29.1609 29.142C30.3406 27.9006 30.9796 26.2427 30.938 24.5314C31.0207 22.7423 31.0207 17.2371 30.938 15.4479V15.4892ZM28.5961 26.4995C28.4091 26.9729 28.1267 27.4028 27.7665 27.7627C27.4063 28.1225 26.976 28.4046 26.5022 28.5915C24.3636 29.0234 22.1774 29.1715 20 29.0319C17.8272 29.1703 15.6457 29.0222 13.5116 28.5915C13.0378 28.4046 12.6074 28.1225 12.2473 27.7627C11.8871 27.4028 11.6047 26.9729 11.4177 26.4995C10.8391 25.0407 10.9631 21.5999 10.9631 20.0034C10.9631 18.4069 10.8391 14.9525 11.4177 13.5074C11.5994 13.0293 11.8798 12.5948 12.2405 12.232C12.6012 11.8693 13.0343 11.5863 13.5116 11.4016C15.6457 10.9709 17.8272 10.8228 20 10.9612C22.1774 10.8216 24.3636 10.9697 26.5022 11.4016C26.976 11.5885 27.4063 11.8706 27.7665 12.2304C28.1267 12.5903 28.4091 13.0202 28.5961 13.4936C29.1747 14.9525 29.0369 18.3932 29.0369 19.9897C29.0369 21.5862 29.1747 25.0407 28.5961 26.4858V26.4995Z" fill="black"/>
<circle cx="20" cy="20" r="19.5" stroke="black"/>
</svg>
