<svg width="20" height="20" viewBox="0 0 20 20" fill="none" xmlns="http://www.w3.org/2000/svg">
<path d="M14.5117 8.67833C15 8.19 15 7.405 15 5.83333C15 4.26167 15 3.47667 14.5117 2.98833M14.5117 8.67833C14.0233 9.16667 13.2383 9.16667 11.6667 9.16667H8.33333C6.76167 9.16667 5.97667 9.16667 5.48833 8.67833M14.5117 2.98833C14.0233 2.5 13.2383 2.5 11.6667 2.5H8.33333C6.76167 2.5 5.97667 2.5 5.48833 2.98833M5.48833 2.98833C5 3.47667 5 4.26167 5 5.83333C5 7.405 5 8.19 5.48833 8.67833M10.8333 5.83333C10.8333 6.05435 10.7455 6.26631 10.5893 6.42259C10.433 6.57887 10.221 6.66667 10 6.66667C9.77899 6.66667 9.56702 6.57887 9.41074 6.42259C9.25446 6.26631 9.16667 6.05435 9.16667 5.83333C9.16667 5.61232 9.25446 5.40036 9.41074 5.24408C9.56702 5.0878 9.77899 5 10 5C10.221 5 10.433 5.0878 10.5893 5.24408C10.7455 5.40036 10.8333 5.61232 10.8333 5.83333Z" stroke="#1e524e" stroke-width="1.5"/>
<path d="M15.0001 5C14.337 5 13.7012 4.73661 13.2323 4.26777C12.7635 3.79893 12.5001 3.16304 12.5001 2.5M15.0001 6.66667C14.337 6.66667 13.7012 6.93006 13.2323 7.3989C12.7635 7.86774 12.5001 8.50363 12.5001 9.16667M5.00008 5C5.66312 5 6.29901 4.73661 6.76785 4.26777C7.23669 3.79893 7.50008 3.16304 7.50008 2.5M5.00008 6.66667C5.66312 6.66667 6.29901 6.93006 6.76785 7.3989C7.23669 7.86774 7.50008 8.50363 7.50008 9.16667M4.16675 16.99H6.05008C6.89175 16.99 7.74425 17.0783 8.56341 17.2467C10.0259 17.5471 11.5307 17.5804 13.0051 17.345C13.7284 17.2283 14.4384 17.0492 15.0817 16.7392C15.6617 16.4583 16.3726 16.0642 16.8501 15.6217C17.3267 15.18 17.8234 14.4575 18.1751 13.8925C18.4784 13.4075 18.3317 12.8133 17.8534 12.4525C17.5846 12.257 17.2608 12.1517 16.9284 12.1517C16.596 12.1517 16.2722 12.257 16.0034 12.4525L14.4976 13.59C13.9142 14.0317 13.2767 14.4375 12.5176 14.5583C12.4259 14.5725 12.3301 14.5858 12.2301 14.5975M12.2301 14.5975C12.1995 14.601 12.169 14.6044 12.1384 14.6075M12.2301 14.5975C12.3635 14.5614 12.4858 14.4927 12.5859 14.3975C12.7115 14.2889 12.814 14.1562 12.8875 14.0073C12.9609 13.8584 13.0038 13.6962 13.0136 13.5305C13.0234 13.3647 12.9999 13.1987 12.9445 13.0422C12.889 12.8857 12.8028 12.7418 12.6909 12.6192C12.5823 12.4986 12.4558 12.3955 12.3159 12.3133C9.98508 10.9225 6.35758 11.9817 4.16675 13.5358M12.2301 14.5975C12.2 14.6041 12.1692 14.6074 12.1384 14.6075M12.1384 14.6075C11.6358 14.658 11.1295 14.6591 10.6267 14.6108" stroke="#1e524e" stroke-width="1.5" stroke-linecap="round"/>
<path d="M4.16675 12.9166C4.16675 12.2263 3.6071 11.6666 2.91675 11.6666C2.22639 11.6666 1.66675 12.2263 1.66675 12.9166V17.0833C1.66675 17.7736 2.22639 18.3333 2.91675 18.3333C3.6071 18.3333 4.16675 17.7736 4.16675 17.0833V12.9166Z" stroke="#1e524e" stroke-width="1.5"/>
</svg>
