<svg width="87" height="27" viewBox="0 0 87 27" fill="none" xmlns="http://www.w3.org/2000/svg">
<path fill-rule="evenodd" clip-rule="evenodd" d="M3.01407 14.5145C18.2829 16.9765 68.5865 13.4432 84 14.5145Z" fill="#2F7973"/>
<path d="M3.01407 14.5145C18.2829 16.9765 68.5865 13.4432 84 14.5145" stroke="#2F7973" stroke-width="5" stroke-miterlimit="1.5" stroke-linecap="round" stroke-linejoin="round"/>
<path fill-rule="evenodd" clip-rule="evenodd" d="M13.0259 21.9063C12.6857 17.1899 12.7555 12.4857 12.4939 7.77411C9.62742 9.99594 5.2642 11.4919 2.76791 14.0604C2.27028 14.572 4.53015 16.6094 4.80322 16.8683C7.05173 18.9982 10.4872 20.3997 13.151 21.9996" fill="#2F7973"/>
<path d="M13.0259 21.9063C12.6857 17.1899 12.7555 12.4857 12.4939 7.77411C9.62742 9.99594 5.2642 11.4919 2.76791 14.0604C2.27028 14.572 4.53015 16.6094 4.80322 16.8683C7.05173 18.9982 10.4872 20.3997 13.151 21.9996" stroke="#2F7973" stroke-width="5" stroke-miterlimit="1.5" stroke-linecap="round" stroke-linejoin="round"/>
</svg>
