<svg width="94" height="78" viewBox="0 0 94 78" fill="none" xmlns="http://www.w3.org/2000/svg">
<path fill-rule="evenodd" clip-rule="evenodd" d="M3.91537 41.1847C47.5184 48.4841 28.004 37.8815 71.9999 41.1847L3.91537 41.1847Z" fill="#2F7973"/>
<path d="M3.91537 41.1847C47.5184 48.4841 28.004 37.8815 71.9999 41.1847" stroke="#2F7973" stroke-width="5" stroke-miterlimit="1.5" stroke-linecap="round" stroke-linejoin="round"/>
<path fill-rule="evenodd" clip-rule="evenodd" d="M32.5898 62.5823C31.5508 49.017 31.6819 35.4924 30.8674 21.9418C22.7204 28.2885 10.2922 32.5267 3.20647 39.8756C1.79395 41.3393 8.27164 47.2298 9.05456 47.9783C15.5012 54.1347 25.324 58.2137 32.948 62.8524" fill="#2F7973"/>
<path d="M32.5898 62.5823C31.5508 49.017 31.6819 35.4924 30.8674 21.9418C22.7204 28.2885 10.2922 32.5267 3.20647 39.8756C1.79395 41.3393 8.27164 47.2298 9.05455 47.9783C15.5012 54.1347 25.324 58.2137 32.948 62.8524" stroke="#2F7973" stroke-width="5" stroke-miterlimit="1.5" stroke-linecap="round" stroke-linejoin="round"/>
</svg>
