<svg width="24" height="24" viewBox="0 0 24 24" fill="none" xmlns="http://www.w3.org/2000/svg">
<path d="M14.8291 11.948L16.2431 10.534L12.0001 6.29L7.75708 10.533L9.17208 11.947L11.0001 10.12V17.657H13.0001V10.12L14.8291 11.948Z" fill="black"/>
<path fill-rule="evenodd" clip-rule="evenodd" d="M19.778 4.222C15.482 -0.0739999 8.518 -0.0739999 4.222 4.222C-0.0739999 8.518 -0.0739999 15.482 4.222 19.778C8.518 24.074 15.482 24.074 19.778 19.778C24.074 15.482 24.074 8.518 19.778 4.222ZM18.364 5.636C16.6762 3.94816 14.387 2.99994 12 2.99994C9.61304 2.99994 7.32384 3.94816 5.636 5.636C3.94816 7.32384 2.99994 9.61304 2.99994 12C2.99994 14.387 3.94816 16.6762 5.636 18.364C7.32384 20.0518 9.61304 21.0001 12 21.0001C14.387 21.0001 16.6762 20.0518 18.364 18.364C20.0518 16.6762 21.0001 14.387 21.0001 12C21.0001 9.61304 20.0518 7.32384 18.364 5.636Z" fill="black"/>
</svg>
