<svg width="34" height="33" viewBox="0 0 34 33" fill="none" xmlns="http://www.w3.org/2000/svg">
<path d="M17 0.333332C14.8113 0.333332 12.644 0.764428 10.622 1.60201C8.59986 2.43958 6.76254 3.66724 5.2149 5.21489C2.08929 8.34049 0.333344 12.5797 0.333344 17C0.333344 24.3667 5.11668 30.6167 11.7333 32.8333C12.5667 32.9667 12.8333 32.45 12.8333 32V29.1833C8.21668 30.1833 7.23334 26.95 7.23334 26.95C6.46668 25.0167 5.38334 24.5 5.38334 24.5C3.86668 23.4667 5.50001 23.5 5.50001 23.5C7.16668 23.6167 8.05001 25.2167 8.05001 25.2167C9.50001 27.75 11.95 27 12.9 26.6C13.05 25.5167 13.4833 24.7833 13.95 24.3667C10.25 23.95 6.36668 22.5167 6.36668 16.1667C6.36668 14.3167 7.00001 12.8333 8.08334 11.65C7.91668 11.2333 7.33334 9.5 8.25001 7.25C8.25001 7.25 9.65001 6.8 12.8333 8.95C14.15 8.58333 15.5833 8.4 17 8.4C18.4167 8.4 19.85 8.58333 21.1667 8.95C24.35 6.8 25.75 7.25 25.75 7.25C26.6667 9.5 26.0833 11.2333 25.9167 11.65C27 12.8333 27.6333 14.3167 27.6333 16.1667C27.6333 22.5333 23.7333 23.9333 20.0167 24.35C20.6167 24.8667 21.1667 25.8833 21.1667 27.4333V32C21.1667 32.45 21.4333 32.9833 22.2833 32.8333C28.9 30.6 33.6667 24.3667 33.6667 17C33.6667 14.8113 33.2356 12.644 32.398 10.6219C31.5604 8.59985 30.3328 6.76253 28.7851 5.21489C27.2375 3.66724 25.4002 2.43958 23.3781 1.60201C21.356 0.764428 19.1887 0.333332 17 0.333332Z" fill="black"/>
</svg>
