<svg width="40" height="40" viewBox="0 0 40 40" fill="none" xmlns="http://www.w3.org/2000/svg">
<circle cx="20" cy="20" r="19.5" stroke="black"/>
<path d="M16.5773 26.8089C16.5773 26.8089 17.2089 25.4239 13.5752 24.7799C12.2168 24.5375 11.3134 25.7148 11.0893 27.1413C10.709 29.5374 11.6666 33 11.6666 33C11.9315 32.0859 12.7398 29.2189 14.5804 28.7688C14.5804 28.7688 15.6943 30.1538 18.2889 30.1538C20.8834 30.1538 23.8923 28.0762 24.4561 26.6912L25.4341 27.0513C26.8561 25.9828 27.8771 24.4508 28.3275 22.7093C28.8913 20.0015 29.9101 15.154 27.268 14.8839C24.6259 14.6138 22.1468 17.6539 22.1468 17.6539L20.442 16.5182M20.442 16.5182C20.442 16.5182 19.7628 12.4532 20.5574 11.6706C21.3521 10.8881 24.5715 9.76621 24.9926 8.54739C25.4137 7.32857 24.8296 5.77734 25.0945 6.02664C25.5636 6.44809 25.8969 7.00413 26.0508 7.62196C26.2047 8.2398 26.1721 8.89062 25.9571 9.48921C25.5918 10.3376 24.9924 11.0594 24.2319 11.5667C24.5379 10.5771 24.7918 9.57154 24.9926 8.55431M20.442 16.5182C19.2262 16.5182 16.5977 16.5182 15.4838 18.9004C14.5872 20.8049 15.8913 23.6442 17.7319 24.5583M26.2695 14.9393C26.1812 18.0833 26.2695 19.0944 26.5684 19.7384C26.8672 20.3824 28.1238 23.3395 28.1238 23.3395C28.1238 23.3395 24.0485 20.3062 21.7392 20.0362C20.204 19.953 18.6897 20.4292 17.467 21.3796C19.1447 21.1026 20.0005 20.8672 20.9785 21.3796C21.9566 21.8921 23.186 23.6165 24.6327 23.7342C25.8093 23.7538 26.9832 23.6141 28.1238 23.3187M17.7319 24.5583C17.5244 25.2053 17.2536 25.8294 16.9237 26.4211C16.5569 26.9474 15.1577 29.025 14.5533 28.7687C12.9164 28.0624 13.548 25.5278 13.548 24.7799M17.7319 24.5583C18.8934 24.6414 22.6969 22.7785 22.6969 22.7785M24.4289 26.7051C24.7825 25.7678 24.9666 24.773 24.9723 23.7688M20.1839 14.0736C21.1709 13.4892 22.248 13.0794 23.3693 12.8617M24.2319 11.546C24.6395 11.4213 25.1964 11.8922 25.4885 12.8617C25.7805 13.8313 25.7601 14.9393 25.1013 15.3063C24.4425 15.6733 23.349 14.7592 23.2607 13.8728C23.1724 12.9864 23.5731 11.7468 24.2319 11.546Z" stroke="black" stroke-linecap="round" stroke-linejoin="round"/>
</svg>
