<svg width="87" height="70" viewBox="0 0 87 70" fill="none" xmlns="http://www.w3.org/2000/svg">
<path d="M70.4278 35.6638C80.1469 35.6638 86.6964 42.5467 86.6964 52.745C86.6964 61.9223 79.1688 69.5678 68.9731 69.5678C57.8054 69.5678 49.5535 60.3906 49.5535 46.3727C49.5535 14.5109 72.3716 1.76613 86.6964 0.234497V14.2524C76.9835 16.0362 66.0635 25.9761 65.5745 36.9433C66.0635 36.6912 68.0012 35.6638 70.4278 35.6638ZM20.9102 35.6638C30.6169 35.6638 37.1726 42.5467 37.1726 52.745C37.1726 61.9223 29.645 69.5678 19.4492 69.5678C8.28163 69.5678 0.0297241 60.3906 0.0297241 46.3727C0.0297241 14.5109 22.8478 1.76613 37.1726 0.234497V14.2524C27.4597 16.0362 16.5397 25.9761 16.0507 36.9433C16.5397 36.6912 18.4773 35.6638 20.9102 35.6638Z" fill="white"/>
</svg>
