<svg width="24" height="24" viewBox="0 0 24 24" fill="none" xmlns="http://www.w3.org/2000/svg">
<path d="M20.9198 2.38C19.7972 2.12857 18.6503 2.00114 17.4998 2C16.4133 1.93101 15.3239 2.0775 14.2942 2.43103C13.2645 2.78456 12.3148 3.33816 11.4998 4.06C10.4265 5.13333 9.36317 6.20333 8.30984 7.27C7.09984 7.14 4.22984 7.07 2.30984 9.01C2.12358 9.19736 2.01904 9.45081 2.01904 9.715C2.01904 9.97918 2.12358 10.2326 2.30984 10.42L13.6098 21.74C13.7972 21.9262 14.0506 22.0308 14.3148 22.0308C14.579 22.0308 14.8325 21.9262 15.0198 21.74C16.9698 19.74 16.9098 16.92 16.7898 15.74L19.9998 12.54C23.1898 9.35 21.7398 3.36 21.6798 3.11C21.6337 2.92963 21.5381 2.76574 21.4038 2.63677C21.2695 2.50779 21.1019 2.41887 20.9198 2.38ZM18.5598 11.13L14.9998 14.67C14.8845 14.7864 14.7996 14.9294 14.7525 15.0863C14.7055 15.2432 14.6977 15.4093 14.7298 15.57C14.9459 16.9078 14.7578 18.2796 14.1898 19.51L4.51984 9.82C5.76969 9.24477 7.16685 9.07012 8.51984 9.32C8.67991 9.34084 8.84265 9.32262 8.99415 9.2669C9.14566 9.21117 9.28142 9.1196 9.38984 9C9.38984 9 10.7898 7.55 12.8998 5.44C14.1973 4.39811 15.8399 3.88389 17.4998 4C18.2806 4.00387 19.0598 4.07075 19.8298 4.2C20.0698 5.63 20.4498 9.24 18.5598 11.13Z" fill="white"/>
<path d="M15.73 10.3C16.8345 10.3 17.73 9.40462 17.73 8.30005C17.73 7.19548 16.8345 6.30005 15.73 6.30005C14.6254 6.30005 13.73 7.19548 13.73 8.30005C13.73 9.40462 14.6254 10.3 15.73 10.3Z" fill="white"/>
<path d="M5 16C3 17 3 21 3 21C4.85107 20.9472 6.62315 20.2384 8 19L5 16Z" fill="white"/>
</svg>
